<svg width="244" height="452" viewBox="0 0 244 452" fill="none" xmlns="http://www.w3.org/2000/svg">
<rect width="244" height="451.004" fill="white"/>
<path d="M18.352 20.9119H16.672L14.584 23.9959L12.496 20.9119H10.768L13.672 25.1479L10.66 29.5279H12.34L14.548 26.2879L16.744 29.5279H18.472L15.46 25.1479L18.352 20.9119ZM19.6422 20.9119V29.5279H25.4742V28.1839H21.1542V25.7599H24.7902V24.4159H21.1542V22.2559H25.4742V20.9119H19.6422ZM28.5271 26.1919H29.9191L32.0191 29.5279H33.7711L31.5511 26.0719C32.8111 25.7719 33.5551 24.9079 33.5551 23.5519C33.5551 21.8119 32.3551 20.9119 30.4351 20.9119H26.9911V29.5279H28.5271V26.1919ZM28.5271 24.8719V22.2319H30.3511C31.4551 22.2319 32.0431 22.6999 32.0431 23.5519C32.0431 24.3919 31.4551 24.8719 30.3511 24.8719H28.5271ZM34.611 25.2199C34.611 27.8359 36.291 29.6599 38.619 29.6599C40.947 29.6599 42.627 27.8359 42.627 25.2199C42.627 22.6039 40.947 20.7799 38.619 20.7799C36.291 20.7799 34.611 22.6039 34.611 25.2199ZM41.091 25.2199C41.091 27.0919 40.071 28.3039 38.619 28.3039C37.167 28.3039 36.147 27.0919 36.147 25.2199C36.147 23.3479 37.167 22.1359 38.619 22.1359C40.071 22.1359 41.091 23.3479 41.091 25.2199Z" fill="#727F96"/>
<g opacity="0.3">
<path fill-rule="evenodd" clip-rule="evenodd" d="M200.91 29.1268L201.06 30.727C201.33 30.7697 201.607 30.7918 201.888 30.7918C202.17 30.7918 202.447 30.7697 202.717 30.727L202.867 29.1268C203.176 29.0429 203.469 28.9203 203.741 28.7645L204.979 29.7898C205.428 29.4634 205.824 29.0675 206.15 28.618L205.125 27.3805C205.281 27.1088 205.403 26.8156 205.487 26.5065L207.088 26.3565C207.13 26.0866 207.152 25.8098 207.152 25.5279C207.152 25.246 207.13 24.9692 207.088 24.6993L205.487 24.5493C205.403 24.2402 205.281 23.947 205.125 23.6753L206.15 22.4378C205.824 21.9883 205.428 21.5924 204.979 21.2659L203.741 22.2913C203.469 22.1355 203.176 22.0129 202.867 21.929L202.717 20.3288C202.447 20.2861 202.17 20.2639 201.888 20.2639C201.607 20.2639 201.33 20.2861 201.06 20.3288L200.91 21.929C200.601 22.0129 200.308 22.1355 200.036 22.2913L198.798 21.2659C198.349 21.5924 197.953 21.9883 197.627 22.4378L198.652 23.6753C198.496 23.947 198.373 24.2402 198.29 24.5493L196.689 24.6993C196.647 24.9692 196.625 25.246 196.625 25.5279C196.625 25.8098 196.647 26.0866 196.689 26.3565L198.29 26.5065C198.373 26.8156 198.496 27.1088 198.652 27.3805L197.627 28.618C197.953 29.0675 198.349 29.4634 198.798 29.7898L200.036 28.7645C200.308 28.9203 200.601 29.0429 200.91 29.1268ZM203.862 25.5279C203.862 26.6181 202.979 27.5019 201.888 27.5019C200.798 27.5019 199.914 26.6181 199.914 25.5279C199.914 24.4377 200.798 23.5539 201.888 23.5539C202.979 23.5539 203.862 24.4377 203.862 25.5279Z" fill="#4F566B"/>
<line x1="215.377" y1="18.948" x2="215.377" y2="32.1078" stroke="#E0E6EB" stroke-width="0.657994"/>
<path fill-rule="evenodd" clip-rule="evenodd" d="M228.209 24.5969L231.23 21.5754C231.487 21.3182 231.904 21.3182 232.161 21.5754C232.419 21.8326 232.419 22.2496 232.161 22.5068L229.14 25.5279L232.161 28.549C232.419 28.8062 232.419 29.2232 232.161 29.4804C231.904 29.7376 231.487 29.7376 231.23 29.4804L228.209 26.4589L225.187 29.4804C224.93 29.7376 224.513 29.7376 224.256 29.4804C223.998 29.2232 223.998 28.8062 224.256 28.549L227.277 25.5279L224.256 22.5068C223.998 22.2496 223.998 21.8326 224.256 21.5754C224.513 21.3182 224.93 21.3182 225.187 21.5754L228.209 24.5969Z" fill="#8792A2"/>
</g>
<path d="M15.232 56.8559H18.016L22.216 63.5279H25.72L21.28 56.6159C23.8 56.0159 25.288 54.2879 25.288 51.5759C25.288 48.0959 22.888 46.2959 19.048 46.2959H12.16V63.5279H15.232V56.8559ZM15.232 54.2159V48.9359H18.88C21.088 48.9359 22.264 49.8719 22.264 51.5759C22.264 53.2559 21.088 54.2159 18.88 54.2159H15.232ZM39.0612 57.2399C39.0612 53.3279 36.5412 50.6879 32.9892 50.6879C29.4372 50.6879 26.9172 53.3279 26.9172 57.2399C26.9172 61.1519 29.4372 63.7919 32.9892 63.7919C36.5412 63.7919 39.0612 61.1519 39.0612 57.2399ZM29.8212 57.2399C29.8212 54.6719 31.0452 53.1119 32.9892 53.1119C34.9332 53.1119 36.1572 54.6719 36.1572 57.2399C36.1572 59.8079 34.9332 61.3679 32.9892 61.3679C31.0452 61.3679 29.8212 59.8079 29.8212 57.2399ZM43.615 57.2399C43.615 54.6719 44.959 53.1599 46.927 53.1599C48.463 53.1599 49.399 54.1919 49.759 55.5599L52.183 54.2399C51.511 52.2239 49.639 50.6879 46.927 50.6879C43.327 50.6879 40.735 53.3519 40.735 57.2399C40.735 61.1279 43.327 63.7919 46.927 63.7919C49.663 63.7919 51.583 62.1839 52.231 60.1439L49.759 58.8959C49.399 60.2879 48.463 61.2959 46.927 61.2959C44.959 61.2959 43.615 59.8079 43.615 57.2399ZM57.0763 46.2959H54.1963V63.5279H57.0763V59.5199L58.7323 57.8399L62.5003 63.5279H65.8363L60.7003 55.8239L65.4523 50.9279H61.9243L57.0763 56.2319V46.2959ZM72.2404 63.7919C74.7604 63.7919 76.7524 62.4719 77.6404 60.2639L75.1684 59.3279C74.7844 60.6239 73.6564 61.3439 72.2404 61.3439C70.3924 61.3439 69.0964 60.0239 68.8804 57.8639H77.7124V56.9039C77.7124 53.4479 75.7684 50.6879 72.1204 50.6879C68.6164 50.6879 66.1204 53.5439 66.1204 57.2399C66.1204 61.1279 68.6404 63.7919 72.2404 63.7919ZM72.0964 53.1119C73.9204 53.1119 74.7844 54.3119 74.8084 55.7039H69.0244C69.4564 53.9999 70.6084 53.1119 72.0964 53.1119ZM80.3614 60.3599C80.3614 62.9279 81.6574 63.6719 84.0574 63.6719C84.8014 63.6719 85.5214 63.5999 86.0494 63.5039V61.0799C85.6174 61.1279 85.3534 61.1519 84.8734 61.1519C83.8414 61.1519 83.1934 61.0319 83.1934 59.9039V53.3759H85.8334V50.9279H83.1934V47.2319H80.3614V50.9279H78.6094V53.3759H80.3614V60.3599ZM96.792 56.8559H99.576L103.776 63.5279H107.28L102.84 56.6159C105.36 56.0159 106.848 54.2879 106.848 51.5759C106.848 48.0959 104.448 46.2959 100.608 46.2959H93.72V63.5279H96.792V56.8559ZM96.792 54.2159V48.9359H100.44C102.648 48.9359 103.824 49.8719 103.824 51.5759C103.824 53.2559 102.648 54.2159 100.44 54.2159H96.792ZM109.339 49.2479H112.315V46.2959H109.339V49.2479ZM112.267 50.9279H109.387V63.5279H112.267V50.9279ZM120.269 63.7919C121.901 63.7919 123.101 63.1439 123.893 62.2079V63.5279H126.773V46.2959H123.893V52.2719C123.101 51.3359 121.901 50.6879 120.269 50.6879C116.741 50.6879 114.725 53.6639 114.725 57.2399C114.725 60.8159 116.741 63.7919 120.269 63.7919ZM123.965 56.8799V57.6239C123.965 59.9519 122.621 61.2719 120.845 61.2719C118.757 61.2719 117.629 59.6399 117.629 57.2399C117.629 54.8399 118.757 53.2079 120.845 53.2079C122.621 53.2079 123.965 54.5039 123.965 56.8799ZM135.342 63.7919C137.862 63.7919 139.854 62.4719 140.742 60.2639L138.27 59.3279C137.886 60.6239 136.758 61.3439 135.342 61.3439C133.494 61.3439 132.198 60.0239 131.982 57.8639H140.814V56.9039C140.814 53.4479 138.87 50.6879 135.222 50.6879C131.718 50.6879 129.222 53.5439 129.222 57.2399C129.222 61.1279 131.742 63.7919 135.342 63.7919ZM135.198 53.1119C137.022 53.1119 137.886 54.3119 137.91 55.7039H132.126C132.558 53.9999 133.71 53.1119 135.198 53.1119ZM141.879 61.1279C143.007 62.8559 145.335 63.7919 147.663 63.7919C150.519 63.7919 152.847 62.1599 152.847 59.6159C152.847 56.7359 150.159 56.2799 148.023 55.8239C146.439 55.4879 145.527 55.3199 145.527 54.4079C145.527 53.5679 146.295 53.0399 147.471 53.0399C148.863 53.0399 150.063 53.6879 150.783 54.8159L152.727 53.0639C151.815 51.6719 149.847 50.6879 147.639 50.6879C144.735 50.6879 142.719 52.3679 142.719 54.6719C142.719 57.3599 144.999 57.8639 146.991 58.2719C148.983 58.6799 150.039 58.7999 150.039 59.8799C150.039 61.0079 148.911 61.4399 147.687 61.4399C146.223 61.4399 144.783 60.6239 144.039 59.3999L141.879 61.1279Z" fill="#3F4B66"/>
<path d="M15.472 90.5279L18.652 81.9119H17.068L14.68 88.6079L12.304 81.9119H10.648L13.852 90.5279H15.472ZM19.2797 83.3879H20.7677V81.9119H19.2797V83.3879ZM20.7437 84.2279H19.3037V90.5279H20.7437V84.2279ZM24.8195 90.6599C26.0795 90.6599 27.0755 89.9999 27.5195 88.8959L26.2835 88.4279C26.0915 89.0759 25.5275 89.4359 24.8195 89.4359C23.8955 89.4359 23.2475 88.7759 23.1395 87.6959H27.5555V87.2159C27.5555 85.4879 26.5835 84.1079 24.7595 84.1079C23.0075 84.1079 21.7595 85.5359 21.7595 87.3839C21.7595 89.3279 23.0195 90.6599 24.8195 90.6599ZM24.7475 85.3199C25.6595 85.3199 26.0915 85.9199 26.1035 86.6159H23.2115C23.4275 85.7639 24.0035 85.3199 24.7475 85.3199ZM31.4761 84.2279L30.3601 88.4039L29.2201 84.2279H27.7441L29.6401 90.5279H30.8881L32.0401 86.3999L33.1921 90.5279H34.4401L36.3361 84.2279H34.9081L33.7921 88.4039L32.6641 84.2279H31.4761ZM39.3588 83.3879H40.8468V81.9119H39.3588V83.3879ZM40.8228 84.2279H39.3828V90.5279H40.8228V84.2279ZM42.2346 90.5279H43.6746V86.8319C43.6746 85.9319 44.3346 85.4519 44.9826 85.4519C45.7746 85.4519 46.0866 86.0159 46.0866 86.7959V90.5279H47.5266V86.3759C47.5266 85.0199 46.7346 84.1079 45.4146 84.1079C44.5986 84.1079 44.0346 84.4799 43.6746 84.8999V84.2279H42.2346V90.5279ZM58.3343 81.9119H56.6543L54.5663 84.9959L52.4783 81.9119H50.7503L53.6543 86.1479L50.6423 90.5279H52.3223L54.5303 87.2879L56.7263 90.5279H58.4543L55.4423 86.1479L58.3343 81.9119ZM61.4227 90.6599C62.6827 90.6599 63.6787 89.9999 64.1227 88.8959L62.8867 88.4279C62.6947 89.0759 62.1307 89.4359 61.4227 89.4359C60.4987 89.4359 59.8507 88.7759 59.7427 87.6959H64.1587V87.2159C64.1587 85.4879 63.1867 84.1079 61.3627 84.1079C59.6107 84.1079 58.3627 85.5359 58.3627 87.3839C58.3627 89.3279 59.6227 90.6599 61.4227 90.6599ZM61.3507 85.3199C62.2627 85.3199 62.6947 85.9199 62.7067 86.6159H59.8147C60.0307 85.7639 60.6067 85.3199 61.3507 85.3199ZM68.7138 84.2159C68.6058 84.2039 68.4738 84.1919 68.3058 84.1919C67.5018 84.1919 66.8538 84.5759 66.5778 85.1639V84.2279H65.1378V90.5279H66.5778V87.2159C66.5778 86.2079 67.2738 85.6199 68.1858 85.6199C68.3898 85.6199 68.5338 85.6319 68.7138 85.6559V84.2159ZM74.9781 87.3839C74.9781 85.4279 73.7181 84.1079 71.9421 84.1079C70.1661 84.1079 68.9061 85.4279 68.9061 87.3839C68.9061 89.3399 70.1661 90.6599 71.9421 90.6599C73.7181 90.6599 74.9781 89.3399 74.9781 87.3839ZM70.3581 87.3839C70.3581 86.0999 70.9701 85.3199 71.9421 85.3199C72.9141 85.3199 73.5261 86.0999 73.5261 87.3839C73.5261 88.6679 72.9141 89.4479 71.9421 89.4479C70.9701 89.4479 70.3581 88.6679 70.3581 87.3839Z" fill="#635BFF"/>
<path fill-rule="evenodd" clip-rule="evenodd" d="M81.7789 84.5539V89.4889H86.7138V88.0084C86.7138 87.7358 86.9348 87.5149 87.2073 87.5149C87.4799 87.5149 87.7008 87.7358 87.7008 88.0084V89.9824C87.7008 90.2549 87.4799 90.4758 87.2073 90.4758H81.2854C81.0128 90.4758 80.7919 90.2549 80.7919 89.9824V84.0604C80.7919 83.7879 81.0128 83.5669 81.2854 83.5669H83.2593C83.5319 83.5669 83.7528 83.7879 83.7528 84.0604C83.7528 84.333 83.5319 84.5539 83.2593 84.5539H81.7789ZM84.5953 87.3703C84.4026 87.5631 84.0901 87.5631 83.8974 87.3703C83.7047 87.1776 83.7047 86.8652 83.8974 86.6724L87.0068 83.5646H85.2413C84.9694 83.5646 84.7489 83.3442 84.7489 83.0723C84.7489 82.8004 84.9694 82.5799 85.2413 82.5799L88.1954 82.5799C88.3214 82.5799 88.4474 82.628 88.5436 82.7241C88.6397 82.8203 88.6878 82.9463 88.6878 83.0723V86.0264C88.6878 86.2984 88.4674 86.5188 88.1954 86.5188C87.9235 86.5188 87.7031 86.2984 87.7031 86.0264V84.2609L84.5953 87.3703Z" fill="#635BFF"/>
<line y1="105.199" x2="244" y2="105.199" stroke="#E0E6EB" stroke-width="0.657994"/>
<line y1="105.199" x2="244" y2="105.199" stroke="#D5DBE1" stroke-width="0.657994"/>
<path d="M52.1336 118.912L48.8696 127.528H50.3936L51.1256 125.56H54.8456L55.5896 127.528H57.1376L53.8736 118.912H52.1336ZM52.9736 120.616L54.3416 124.216H51.6296L52.9736 120.616ZM58.6513 124.384C58.6513 123.1 59.3233 122.344 60.3073 122.344C61.0753 122.344 61.5433 122.86 61.7233 123.544L62.9353 122.884C62.5993 121.876 61.6633 121.108 60.3073 121.108C58.5073 121.108 57.2113 122.44 57.2113 124.384C57.2113 126.328 58.5073 127.66 60.3073 127.66C61.6753 127.66 62.6353 126.856 62.9593 125.836L61.7233 125.212C61.5433 125.908 61.0753 126.412 60.3073 126.412C59.3233 126.412 58.6513 125.668 58.6513 124.384ZM63.8607 125.944C63.8607 127.228 64.5087 127.6 65.7087 127.6C66.0807 127.6 66.4407 127.564 66.7047 127.516V126.304C66.4887 126.328 66.3567 126.34 66.1167 126.34C65.6007 126.34 65.2767 126.28 65.2767 125.716V122.452H66.5967V121.228H65.2767V119.38H63.8607V121.228H62.9847V122.452H63.8607V125.944ZM67.658 120.388H69.146V118.912H67.658V120.388ZM69.122 121.228H67.682V127.528H69.122V121.228ZM73.5578 127.528L75.8618 121.228H74.3738L72.8498 125.8L71.3138 121.228H69.8018L72.1058 127.528H73.5578ZM76.514 120.388H78.002V118.912H76.514V120.388ZM77.978 121.228H76.538V127.528H77.978V121.228ZM79.5218 125.944C79.5218 127.228 80.1698 127.6 81.3698 127.6C81.7418 127.6 82.1018 127.564 82.3658 127.516V126.304C82.1498 126.328 82.0178 126.34 81.7778 126.34C81.2618 126.34 80.9378 126.28 80.9378 125.716V122.452H82.2578V121.228H80.9378V119.38H79.5218V121.228H78.6458V122.452H79.5218V125.944ZM86.0791 128.116L88.6711 121.228H87.1831L85.6711 125.644L84.1231 121.228H82.6111L84.9031 127.3L84.6631 127.888C84.4591 128.392 84.2311 128.524 83.7511 128.524C83.5711 128.524 83.4631 128.512 83.2711 128.488V129.7C83.4751 129.724 83.5591 129.736 83.8591 129.736C85.1671 129.736 85.7191 129.076 86.0791 128.116Z" fill="#635BFF"/>
<path d="M157.209 127.528H160.089C162.765 127.528 164.421 125.848 164.421 123.22C164.421 120.592 162.765 118.912 160.089 118.912H157.209V127.528ZM158.709 126.208V120.232H160.077C161.865 120.232 162.909 121.396 162.909 123.22C162.909 125.032 161.865 126.208 160.089 126.208H158.709ZM168.125 127.66C169.385 127.66 170.381 127 170.825 125.896L169.589 125.428C169.397 126.076 168.833 126.436 168.125 126.436C167.201 126.436 166.553 125.776 166.445 124.696H170.861V124.216C170.861 122.488 169.889 121.108 168.065 121.108C166.313 121.108 165.065 122.536 165.065 124.384C165.065 126.328 166.325 127.66 168.125 127.66ZM168.053 122.32C168.965 122.32 169.397 122.92 169.409 123.616H166.517C166.733 122.764 167.309 122.32 168.053 122.32ZM171.973 125.944C171.973 127.228 172.621 127.6 173.821 127.6C174.193 127.6 174.553 127.564 174.817 127.516V126.304C174.601 126.328 174.469 126.34 174.229 126.34C173.713 126.34 173.389 126.28 173.389 125.716V122.452H174.709V121.228H173.389V119.38H171.973V121.228H171.097V122.452H171.973V125.944ZM180.642 126.016V122.896C180.642 121.756 179.754 121.108 178.278 121.108C176.826 121.108 175.722 121.756 175.674 123.208H177.078C177.114 122.656 177.438 122.356 178.194 122.356C178.842 122.356 179.238 122.56 179.238 123.124V123.436L177.498 123.796C176.286 124.048 175.386 124.576 175.386 125.776C175.386 126.904 176.31 127.636 177.51 127.636C178.266 127.636 178.89 127.42 179.298 127.024C179.298 127.204 179.31 127.372 179.334 127.528H180.738C180.666 127.072 180.642 126.532 180.642 126.016ZM179.238 125.308C179.238 126.076 178.494 126.484 177.726 126.484C177.174 126.484 176.814 126.208 176.814 125.716C176.814 125.152 177.27 124.96 177.882 124.828L179.238 124.54V125.308ZM181.985 120.388H183.473V118.912H181.985V120.388ZM183.449 121.228H182.009V127.528H183.449V121.228ZM186.301 118.912H184.861V127.528H186.301V118.912ZM187.053 126.328C187.617 127.192 188.781 127.66 189.945 127.66C191.373 127.66 192.537 126.844 192.537 125.572C192.537 124.132 191.193 123.904 190.125 123.676C189.333 123.508 188.877 123.424 188.877 122.968C188.877 122.548 189.261 122.284 189.849 122.284C190.545 122.284 191.145 122.608 191.505 123.172L192.477 122.296C192.021 121.6 191.037 121.108 189.933 121.108C188.481 121.108 187.473 121.948 187.473 123.1C187.473 124.444 188.613 124.696 189.609 124.9C190.605 125.104 191.133 125.164 191.133 125.704C191.133 126.268 190.569 126.484 189.957 126.484C189.225 126.484 188.505 126.076 188.133 125.464L187.053 126.328Z" fill="#697386"/>
<rect x="16.7211" y="140.212" width="105.279" height="1.31599" fill="#5469D4"/>
<line y1="141.389" x2="244" y2="141.389" stroke="#D5DBE1" stroke-width="0.657994"/>
<g clip-path="url(#clip0_2379_884778)">
<path fill-rule="evenodd" clip-rule="evenodd" d="M13.3244 156.778C13.3244 156.505 13.5453 156.284 13.8179 156.284H17.7658C18.0384 156.284 18.2593 156.505 18.2593 156.778C18.2593 157.05 18.0384 157.271 17.7658 157.271H13.8179C13.5453 157.271 13.3244 157.05 13.3244 156.778Z" fill="#30313D"/>
<path fill-rule="evenodd" clip-rule="evenodd" d="M13.3244 158.752C13.3244 158.479 13.5453 158.258 13.8179 158.258H17.7658C18.0384 158.258 18.2593 158.479 18.2593 158.752C18.2593 159.024 18.0384 159.245 17.7658 159.245H13.8179C13.5453 159.245 13.3244 159.024 13.3244 158.752Z" fill="#30313D"/>
<path fill-rule="evenodd" clip-rule="evenodd" d="M13.3244 160.726C13.3244 160.453 13.5453 160.232 13.8179 160.232H15.7919C16.0644 160.232 16.2854 160.453 16.2854 160.726C16.2854 160.998 16.0644 161.219 15.7919 161.219H13.8179C13.5453 161.219 13.3244 160.998 13.3244 160.726Z" fill="#30313D"/>
<path fill-rule="evenodd" clip-rule="evenodd" d="M12.1749 154.982C12.174 154.985 12.1729 154.988 12.1729 154.994V163.353L13.1756 162.669C13.1919 162.657 13.209 162.647 13.2265 162.638C13.5308 162.48 13.8951 162.476 14.2026 162.642L14.2033 162.642L15.7837 163.499L17.2599 162.651C17.5583 162.473 17.9333 162.46 18.2458 162.629C18.257 162.635 18.2679 162.641 18.2785 162.648L19.4107 163.377L19.4042 154.995C19.4042 154.989 19.4031 154.985 19.4022 154.982C19.4012 154.98 19.3996 154.978 19.3976 154.976C19.3956 154.974 19.3931 154.972 19.3902 154.971C19.3877 154.97 19.3835 154.968 19.3767 154.968H12.2005C12.1937 154.968 12.1895 154.97 12.1869 154.971C12.184 154.972 12.1816 154.974 12.1795 154.976C12.1775 154.978 12.176 154.98 12.1749 154.982ZM11.1859 154.994C11.1859 154.431 11.6391 153.981 12.2005 153.981H19.3767C19.9379 153.981 20.391 154.431 20.3912 154.994L20.3978 163.675C20.3978 164.334 19.6703 164.719 19.1227 164.366L17.7727 163.496C17.7702 163.497 17.7677 163.497 17.7661 163.498L17.7559 163.504L16.2022 164.397C15.949 164.546 15.6416 164.542 15.3986 164.413L15.3951 164.411L13.7336 163.511C13.7265 163.507 13.7137 163.503 13.6964 163.508L12.48 164.338C11.932 164.716 11.1859 164.318 11.1859 163.655V154.994Z" fill="#30313D"/>
<path d="M28.6718 154.629H27.1358V163.245H28.6718V154.629ZM30.2399 163.245H31.6799V159.549C31.6799 158.649 32.3399 158.169 32.9879 158.169C33.7799 158.169 34.0919 158.733 34.0919 159.513V163.245H35.5319V159.093C35.5319 157.737 34.7399 156.825 33.4199 156.825C32.6039 156.825 32.0399 157.197 31.6799 157.617V156.945H30.2399V163.245ZM39.9084 163.245L42.2124 156.945H40.7244L39.2004 161.517L37.6644 156.945H36.1524L38.4564 163.245H39.9084ZM48.5135 160.101C48.5135 158.145 47.2535 156.825 45.4775 156.825C43.7015 156.825 42.4415 158.145 42.4415 160.101C42.4415 162.057 43.7015 163.377 45.4775 163.377C47.2535 163.377 48.5135 162.057 48.5135 160.101ZM43.8935 160.101C43.8935 158.817 44.5055 158.037 45.4775 158.037C46.4495 158.037 47.0615 158.817 47.0615 160.101C47.0615 161.385 46.4495 162.165 45.4775 162.165C44.5055 162.165 43.8935 161.385 43.8935 160.101ZM49.6104 156.105H51.0984V154.629H49.6104V156.105ZM51.0744 156.945H49.6344V163.245H51.0744V156.945ZM53.6315 160.101C53.6315 158.817 54.3035 158.061 55.2875 158.061C56.0555 158.061 56.5235 158.577 56.7035 159.261L57.9155 158.601C57.5795 157.593 56.6435 156.825 55.2875 156.825C53.4875 156.825 52.1915 158.157 52.1915 160.101C52.1915 162.045 53.4875 163.377 55.2875 163.377C56.6555 163.377 57.6155 162.573 57.9395 161.553L56.7035 160.929C56.5235 161.625 56.0555 162.129 55.2875 162.129C54.3035 162.129 53.6315 161.385 53.6315 160.101ZM61.4742 163.377C62.7342 163.377 63.7302 162.717 64.1742 161.613L62.9382 161.145C62.7462 161.793 62.1822 162.153 61.4742 162.153C60.5502 162.153 59.9022 161.493 59.7942 160.413H64.2102V159.933C64.2102 158.205 63.2382 156.825 61.4142 156.825C59.6622 156.825 58.4142 158.253 58.4142 160.101C58.4142 162.045 59.6742 163.377 61.4742 163.377ZM61.4022 158.037C62.3142 158.037 62.7462 158.637 62.7582 159.333H59.8662C60.0822 158.481 60.6582 158.037 61.4022 158.037ZM64.6307 162.045C65.1947 162.909 66.3587 163.377 67.5227 163.377C68.9507 163.377 70.1147 162.561 70.1147 161.289C70.1147 159.849 68.7707 159.621 67.7027 159.393C66.9107 159.225 66.4547 159.141 66.4547 158.685C66.4547 158.265 66.8387 158.001 67.4267 158.001C68.1227 158.001 68.7227 158.325 69.0827 158.889L70.0547 158.013C69.5987 157.317 68.6147 156.825 67.5107 156.825C66.0587 156.825 65.0507 157.665 65.0507 158.817C65.0507 160.161 66.1907 160.413 67.1867 160.617C68.1827 160.821 68.7107 160.881 68.7107 161.421C68.7107 161.985 68.1467 162.201 67.5347 162.201C66.8027 162.201 66.0827 161.793 65.7107 161.181L64.6307 162.045ZM78.541 161.733V158.613C78.541 157.473 77.653 156.825 76.177 156.825C74.725 156.825 73.621 157.473 73.573 158.925H74.977C75.013 158.373 75.337 158.073 76.093 158.073C76.741 158.073 77.137 158.277 77.137 158.841V159.153L75.397 159.513C74.185 159.765 73.285 160.293 73.285 161.493C73.285 162.621 74.209 163.353 75.409 163.353C76.165 163.353 76.789 163.137 77.197 162.741C77.197 162.921 77.209 163.089 77.233 163.245H78.637C78.565 162.789 78.541 162.249 78.541 161.733ZM77.137 161.025C77.137 161.793 76.393 162.201 75.625 162.201C75.073 162.201 74.713 161.925 74.713 161.433C74.713 160.869 75.169 160.677 75.781 160.545L77.137 160.257V161.025ZM82.9508 156.945L81.8348 161.121L80.6948 156.945H79.2188L81.1148 163.245H82.3628L83.5148 159.117L84.6668 163.245H85.9148L87.8108 156.945H86.3828L85.2668 161.121L84.1388 156.945H82.9508ZM93.2598 161.733V158.613C93.2598 157.473 92.3718 156.825 90.8958 156.825C89.4438 156.825 88.3398 157.473 88.2918 158.925H89.6958C89.7318 158.373 90.0558 158.073 90.8118 158.073C91.4598 158.073 91.8558 158.277 91.8558 158.841V159.153L90.1158 159.513C88.9038 159.765 88.0038 160.293 88.0038 161.493C88.0038 162.621 88.9278 163.353 90.1278 163.353C90.8838 163.353 91.5078 163.137 91.9158 162.741C91.9158 162.921 91.9278 163.089 91.9518 163.245H93.3558C93.2838 162.789 93.2598 162.249 93.2598 161.733ZM91.8558 161.025C91.8558 161.793 91.1118 162.201 90.3438 162.201C89.7918 162.201 89.4318 161.925 89.4318 161.433C89.4318 160.869 89.8878 160.677 90.4998 160.545L91.8558 160.257V161.025ZM94.7042 156.105H96.1922V154.629H94.7042V156.105ZM96.1682 156.945H94.7282V163.245H96.1682V156.945ZM97.8133 161.661C97.8133 162.945 98.4613 163.317 99.6613 163.317C100.033 163.317 100.393 163.281 100.657 163.233V162.021C100.441 162.045 100.309 162.057 100.069 162.057C99.5533 162.057 99.2293 161.997 99.2293 161.433V158.169H100.549V156.945H99.2293V155.097H97.8133V156.945H96.9373V158.169H97.8133V161.661ZM101.712 156.105H103.2V154.629H101.712V156.105ZM103.176 156.945H101.736V163.245H103.176V156.945ZM104.689 163.245H106.129V159.549C106.129 158.649 106.789 158.169 107.437 158.169C108.229 158.169 108.541 158.733 108.541 159.513V163.245H109.981V159.093C109.981 157.737 109.189 156.825 107.869 156.825C107.053 156.825 106.489 157.197 106.129 157.617V156.945H104.689V163.245ZM117.055 162.609V156.945H115.615V157.617C115.279 157.173 114.631 156.825 113.839 156.825C112.111 156.825 111.079 158.229 111.079 159.957C111.079 161.685 112.111 163.089 113.839 163.089C114.643 163.089 115.279 162.741 115.615 162.297V162.741C115.615 163.893 114.955 164.373 113.983 164.373C113.191 164.373 112.651 163.929 112.459 163.221L111.115 163.701C111.511 164.925 112.531 165.537 113.983 165.537C115.783 165.537 117.055 164.469 117.055 162.609ZM115.639 159.897V160.041C115.639 161.169 115.015 161.829 114.115 161.829C113.119 161.829 112.531 161.121 112.531 159.957C112.531 158.781 113.119 158.085 114.115 158.085C115.015 158.085 115.639 158.745 115.639 159.897ZM124.3 163.377C126.064 163.377 127.072 161.889 127.072 160.101C127.072 158.313 126.064 156.825 124.3 156.825C123.484 156.825 122.884 157.149 122.488 157.617V156.945H121.048V165.405H122.488V162.585C122.884 163.053 123.484 163.377 124.3 163.377ZM122.452 159.921C122.452 158.733 123.124 158.085 124.012 158.085C125.056 158.085 125.62 158.901 125.62 160.101C125.62 161.301 125.056 162.117 124.012 162.117C123.124 162.117 122.452 161.457 122.452 160.293V159.921ZM133.033 161.733V158.613C133.033 157.473 132.145 156.825 130.669 156.825C129.217 156.825 128.113 157.473 128.065 158.925H129.469C129.505 158.373 129.829 158.073 130.585 158.073C131.233 158.073 131.629 158.277 131.629 158.841V159.153L129.889 159.513C128.677 159.765 127.777 160.293 127.777 161.493C127.777 162.621 128.701 163.353 129.901 163.353C130.657 163.353 131.281 163.137 131.689 162.741C131.689 162.921 131.701 163.089 131.725 163.245H133.129C133.057 162.789 133.033 162.249 133.033 161.733ZM131.629 161.025C131.629 161.793 130.885 162.201 130.117 162.201C129.565 162.201 129.205 161.925 129.205 161.433C129.205 160.869 129.661 160.677 130.273 160.545L131.629 160.257V161.025ZM137.12 163.833L139.712 156.945H138.224L136.712 161.361L135.164 156.945H133.652L135.944 163.017L135.704 163.605C135.5 164.109 135.272 164.241 134.792 164.241C134.612 164.241 134.504 164.229 134.312 164.205V165.417C134.516 165.441 134.6 165.453 134.9 165.453C136.208 165.453 136.76 164.793 137.12 163.833ZM141.93 159.549C141.93 158.649 142.566 158.169 143.178 158.169C143.946 158.169 144.234 158.733 144.234 159.513V163.245H145.674V159.549C145.674 158.649 146.31 158.169 146.922 158.169C147.69 158.169 147.978 158.733 147.978 159.513V163.245H149.418V159.093C149.418 157.737 148.578 156.825 147.282 156.825C146.31 156.825 145.71 157.293 145.326 157.701C144.978 157.161 144.414 156.825 143.658 156.825C142.818 156.825 142.278 157.197 141.93 157.617V156.945H140.49V163.245H141.93V159.549ZM153.548 163.377C154.808 163.377 155.804 162.717 156.248 161.613L155.012 161.145C154.82 161.793 154.256 162.153 153.548 162.153C152.624 162.153 151.976 161.493 151.868 160.413H156.284V159.933C156.284 158.205 155.312 156.825 153.488 156.825C151.736 156.825 150.488 158.253 150.488 160.101C150.488 162.045 151.748 163.377 153.548 163.377ZM153.476 158.037C154.388 158.037 154.82 158.637 154.832 159.333H151.94C152.156 158.481 152.732 158.037 153.476 158.037ZM157.365 163.245H158.805V159.549C158.805 158.649 159.465 158.169 160.113 158.169C160.905 158.169 161.217 158.733 161.217 159.513V163.245H162.657V159.093C162.657 157.737 161.865 156.825 160.545 156.825C159.729 156.825 159.165 157.197 158.805 157.617V156.945H157.365V163.245ZM164.259 161.661C164.259 162.945 164.907 163.317 166.107 163.317C166.479 163.317 166.839 163.281 167.103 163.233V162.021C166.887 162.045 166.755 162.057 166.515 162.057C165.999 162.057 165.675 161.997 165.675 161.433V158.169H166.995V156.945H165.675V155.097H164.259V156.945H163.383V158.169H164.259V161.661Z" fill="#3F4B66"/>
<g clip-path="url(#clip1_2379_884778)">
<path d="M17.7881 187.501V186.157H10.7081V187.501H13.4801V194.773H15.0161V187.501H17.7881ZM17.9678 190.465C17.9678 193.081 19.6478 194.905 21.9758 194.905C24.3038 194.905 25.9838 193.081 25.9838 190.465C25.9838 187.849 24.3038 186.025 21.9758 186.025C19.6478 186.025 17.9678 187.849 17.9678 190.465ZM24.4478 190.465C24.4478 192.337 23.4278 193.549 21.9758 193.549C20.5238 193.549 19.5038 192.337 19.5038 190.465C19.5038 188.593 20.5238 187.381 21.9758 187.381C23.4278 187.381 24.4478 188.593 24.4478 190.465ZM33.2478 187.501V186.157H26.1678V187.501H28.9398V194.773H30.4758V187.501H33.2478ZM36.0176 186.157L32.7536 194.773H34.2776L35.0096 192.805H38.7296L39.4736 194.773H41.0216L37.7576 186.157H36.0176ZM36.8576 187.861L38.2256 191.461H35.5136L36.8576 187.861ZM42.1814 194.773H47.7734V193.429H43.7174V186.157H42.1814V194.773Z" fill="#1A1F36"/>
<path d="M181.723 193.129C182.311 194.101 183.439 194.737 184.795 194.881V196.045H185.935V194.869C187.459 194.665 188.635 193.693 188.635 192.205C188.635 190.429 187.255 190.033 185.935 189.781V187.333C186.631 187.489 187.183 187.933 187.567 188.593L188.611 187.609C188.143 186.793 187.147 186.217 185.935 186.061V184.909H184.795V186.061C183.283 186.229 182.155 187.177 182.155 188.605C182.155 190.297 183.487 190.693 184.795 190.945V193.585C183.967 193.453 183.343 192.997 182.851 192.169L181.723 193.129ZM183.547 188.497C183.547 187.837 184.051 187.429 184.795 187.297V189.565C184.075 189.385 183.547 189.133 183.547 188.497ZM187.231 192.313C187.231 193.069 186.679 193.453 185.935 193.573V191.173C186.679 191.353 187.231 191.629 187.231 192.313ZM191.725 186.097C191.641 187.117 191.197 187.489 190.117 187.585L189.277 187.657V188.797H191.353V194.773H192.889V186.097H191.725ZM194.299 194.773H195.091V194.869C195.091 195.397 194.839 195.649 194.299 195.685V196.489C195.355 196.477 196.039 195.865 196.039 194.857V193.033H194.299V194.773ZM198.466 186.097C198.382 187.117 197.938 187.489 196.858 187.585L196.018 187.657V188.797H198.094V194.773H199.63V186.097H198.466ZM206.328 194.773V192.673H207.936V191.401H206.352V186.157H204.408L200.856 191.473V192.673H204.924V194.773H206.328ZM202.392 191.401L204.9 187.633V191.401H202.392ZM211.896 186.025C210.324 186.025 209.088 186.949 209.088 188.401C209.088 189.241 209.532 189.889 210.324 190.249C209.388 190.549 208.644 191.329 208.644 192.385C208.644 193.921 210.036 194.905 211.896 194.905C213.756 194.905 215.148 193.921 215.148 192.385C215.148 191.329 214.404 190.549 213.468 190.249C214.26 189.889 214.704 189.241 214.704 188.401C214.704 186.949 213.468 186.025 211.896 186.025ZM211.896 189.637C211.044 189.637 210.456 189.157 210.456 188.425C210.456 187.705 211.044 187.213 211.896 187.213C212.76 187.213 213.336 187.705 213.336 188.425C213.336 189.157 212.76 189.637 211.896 189.637ZM211.896 190.885C212.928 190.885 213.648 191.461 213.648 192.277C213.648 193.129 212.928 193.693 211.896 193.693C210.864 193.693 210.156 193.129 210.156 192.277C210.156 191.461 210.864 190.885 211.896 190.885ZM215.972 194.773H217.712V193.033H215.972V194.773ZM220.408 190.909C220.66 190.561 221.128 190.273 221.752 190.273C222.712 190.273 223.324 191.029 223.324 191.977C223.324 192.925 222.604 193.633 221.668 193.633C220.744 193.633 220.096 193.021 219.952 192.049L218.476 192.313C218.752 193.981 219.976 194.905 221.668 194.905C223.444 194.905 224.764 193.621 224.764 191.929C224.764 190.285 223.672 189.025 221.956 189.025C221.272 189.025 220.732 189.289 220.384 189.613L220.576 187.501H224.248V186.157H219.4L219.016 190.717L220.408 190.909ZM227.464 190.909C227.716 190.561 228.184 190.273 228.808 190.273C229.768 190.273 230.38 191.029 230.38 191.977C230.38 192.925 229.66 193.633 228.724 193.633C227.8 193.633 227.152 193.021 227.008 192.049L225.532 192.313C225.808 193.981 227.032 194.905 228.724 194.905C230.5 194.905 231.82 193.621 231.82 191.929C231.82 190.285 230.728 189.025 229.012 189.025C228.328 189.025 227.788 189.289 227.44 189.613L227.632 187.501H231.304V186.157H226.456L226.072 190.717L227.464 190.909Z" fill="#1A1F36"/>
</g>
<path d="M10.528 213.829C10.528 212.376 11.7063 211.197 13.1599 211.197H230.84C232.294 211.197 233.472 212.376 233.472 213.829V251.565C233.472 253.019 232.294 254.197 230.84 254.197H13.1599C11.7063 254.197 10.528 253.019 10.528 251.565V213.829Z" fill="#F6F8FA"/>
<path d="M17.8919 217.845H16.7399V226.461H17.8919V217.845ZM26.5907 217.845H25.4747V224.505L20.9987 217.845H19.7867V226.461H20.8907V219.525L25.5947 226.461H26.5907V217.845ZM32.2141 226.461L35.4661 217.845H34.2901L31.6261 225.021L28.9621 217.845H27.7261L31.0021 226.461H32.2141ZM35.3179 223.449H38.5939V222.477H35.3179V223.449ZM39.7322 222.153C39.7322 224.781 40.9682 226.593 43.0202 226.593C45.0602 226.593 46.2962 224.781 46.2962 222.153C46.2962 219.525 45.0602 217.713 43.0202 217.713C40.9682 217.713 39.7322 219.525 39.7322 222.153ZM40.8842 222.153C40.8842 220.137 41.6162 218.721 43.0202 218.721C44.4122 218.721 45.1562 220.137 45.1562 222.153C45.1562 224.169 44.4122 225.585 43.0202 225.585C41.6162 225.585 40.8842 224.169 40.8842 222.153ZM47.2088 222.153C47.2088 224.781 48.4448 226.593 50.4968 226.593C52.5368 226.593 53.7728 224.781 53.7728 222.153C53.7728 219.525 52.5368 217.713 50.4968 217.713C48.4448 217.713 47.2088 219.525 47.2088 222.153ZM48.3608 222.153C48.3608 220.137 49.0928 218.721 50.4968 218.721C51.8888 218.721 52.6328 220.137 52.6328 222.153C52.6328 224.169 51.8888 225.585 50.4968 225.585C49.0928 225.585 48.3608 224.169 48.3608 222.153ZM57.6862 226.593C59.4742 226.593 60.6382 225.465 60.6382 224.049C60.6382 222.861 59.8942 222.201 59.0302 221.961C59.7622 221.721 60.3622 221.001 60.3622 220.065C60.3622 218.697 59.3902 217.713 57.7102 217.713C56.0542 217.713 54.9382 218.805 54.7102 220.245L55.7422 220.449C55.9342 219.369 56.6542 218.685 57.6862 218.685C58.6702 218.685 59.2822 219.237 59.2822 220.125C59.2822 220.989 58.6102 221.493 57.6142 221.493H56.6782V222.465H57.6022C58.6942 222.465 59.5222 222.969 59.5222 223.989C59.5222 225.009 58.7662 225.633 57.6742 225.633C56.5942 225.633 55.7422 224.937 55.5742 223.737L54.4582 223.977C54.7342 225.693 56.0422 226.593 57.6862 226.593ZM64.626 217.713C63.066 217.713 61.89 218.637 61.89 220.017C61.89 220.881 62.382 221.553 63.234 221.889C62.214 222.201 61.446 222.993 61.446 224.085C61.446 225.597 62.79 226.581 64.626 226.581C66.474 226.581 67.818 225.597 67.818 224.085C67.818 222.993 67.05 222.201 66.018 221.889C66.882 221.553 67.374 220.881 67.374 220.017C67.374 218.637 66.198 217.713 64.626 217.713ZM64.626 221.433C63.618 221.433 62.922 220.881 62.922 220.029C62.922 219.189 63.618 218.625 64.626 218.625C65.646 218.625 66.33 219.189 66.33 220.029C66.33 220.881 65.646 221.433 64.626 221.433ZM64.626 222.381C65.838 222.381 66.702 223.053 66.702 224.013C66.702 224.997 65.838 225.669 64.626 225.669C63.414 225.669 62.574 224.997 62.574 224.013C62.574 223.053 63.414 222.381 64.626 222.381Z" fill="#30313D"/>
<path fill-rule="evenodd" clip-rule="evenodd" d="M72.2463 220.316V224.429H76.3588V223.195C76.3588 222.968 76.5429 222.784 76.77 222.784C76.9972 222.784 77.1813 222.968 77.1813 223.195V224.84C77.1813 225.067 76.9972 225.251 76.77 225.251H71.8351C71.6079 225.251 71.4238 225.067 71.4238 224.84V219.905C71.4238 219.678 71.6079 219.494 71.8351 219.494H73.4801C73.7072 219.494 73.8913 219.678 73.8913 219.905C73.8913 220.132 73.7072 220.316 73.4801 220.316H72.2463ZM74.5933 222.663C74.4327 222.824 74.1724 222.824 74.0118 222.663C73.8512 222.503 73.8512 222.242 74.0118 222.082L76.6029 219.492H75.1317C74.9051 219.492 74.7214 219.308 74.7214 219.081C74.7214 218.855 74.9051 218.671 75.1317 218.671L77.5935 218.671C77.6985 218.671 77.8035 218.711 77.8836 218.791C77.9637 218.871 78.0038 218.976 78.0038 219.081V221.543C78.0038 221.77 77.8201 221.953 77.5935 221.953C77.3669 221.953 77.1832 221.77 77.1832 221.543V220.072L74.5933 222.663Z" fill="#6A7383"/>
<g clip-path="url(#clip2_2379_884778)">
<path d="M15.7919 236.093C15.7919 234.639 16.9702 233.461 18.4238 233.461H37.0558C38.5094 233.461 39.6878 234.639 39.6878 236.093V242.673C39.6878 244.127 38.5094 245.305 37.0558 245.305H18.4238C16.9702 245.305 15.7919 244.127 15.7919 242.673V236.093Z" fill="#CFF5F6"/>
<path d="M21.3079 240.159H22.5799C23.8599 240.159 24.6599 239.543 24.6599 238.399C24.6599 237.239 23.8599 236.639 22.5799 236.639H20.2839V242.383H21.3079V240.159ZM21.3079 239.279V237.519H22.5239C23.2599 237.519 23.6519 237.831 23.6519 238.399C23.6519 238.959 23.2599 239.279 22.5239 239.279H21.3079ZM28.3743 241.375V239.295C28.3743 238.535 27.7823 238.103 26.7983 238.103C25.8303 238.103 25.0943 238.535 25.0623 239.503H25.9983C26.0223 239.135 26.2383 238.935 26.7423 238.935C27.1743 238.935 27.4383 239.071 27.4383 239.447V239.655L26.2783 239.895C25.4703 240.063 24.8703 240.415 24.8703 241.215C24.8703 241.967 25.4863 242.455 26.2863 242.455C26.7903 242.455 27.2063 242.311 27.4783 242.047C27.4783 242.167 27.4863 242.279 27.5023 242.383H28.4383C28.3903 242.079 28.3743 241.719 28.3743 241.375ZM27.4383 240.903C27.4383 241.415 26.9423 241.687 26.4303 241.687C26.0623 241.687 25.8223 241.503 25.8223 241.175C25.8223 240.799 26.1263 240.671 26.5343 240.583L27.4383 240.391V240.903ZM29.3372 237.623H30.3292V236.639H29.3372V237.623ZM30.3132 238.183H29.3532V242.383H30.3132V238.183ZM32.906 242.471C33.45 242.471 33.85 242.255 34.114 241.943V242.383H35.074V236.639H34.114V238.631C33.85 238.319 33.45 238.103 32.906 238.103C31.73 238.103 31.058 239.095 31.058 240.287C31.058 241.479 31.73 242.471 32.906 242.471ZM34.138 240.167V240.415C34.138 241.191 33.69 241.631 33.098 241.631C32.402 241.631 32.026 241.087 32.026 240.287C32.026 239.487 32.402 238.943 33.098 238.943C33.69 238.943 34.138 239.375 34.138 240.167Z" fill="#0055BC"/>
</g>
<path d="M183.28 224.697C183.82 225.729 184.972 226.413 186.34 226.533V227.685H187.216V226.521C188.728 226.353 189.892 225.405 189.892 223.965C189.892 222.273 188.536 221.877 187.216 221.601V218.745C188.044 218.889 188.632 219.393 189.004 220.125L189.832 219.429C189.388 218.541 188.452 217.929 187.216 217.785V216.633H186.34V217.773C184.852 217.893 183.688 218.829 183.688 220.209C183.688 221.817 185.032 222.189 186.34 222.465V225.549C185.368 225.441 184.624 224.913 184.144 223.977L183.28 224.697ZM184.744 220.137C184.744 219.345 185.416 218.817 186.34 218.721V221.409C185.452 221.217 184.744 220.929 184.744 220.137ZM188.836 224.037C188.836 224.937 188.14 225.429 187.216 225.549V222.657C188.116 222.873 188.836 223.185 188.836 224.037ZM190.542 225.513V226.461H196.47V225.453H192.114L194.058 223.869C195.294 222.873 196.302 221.865 196.302 220.401C196.302 218.817 195.198 217.713 193.458 217.713C191.874 217.713 190.614 218.877 190.614 220.413C190.614 220.749 190.674 221.037 190.806 221.409H191.886C191.766 221.109 191.694 220.785 191.694 220.473C191.694 219.489 192.402 218.697 193.434 218.697C194.49 218.697 195.174 219.417 195.174 220.473C195.174 221.601 194.262 222.429 193.086 223.401L190.542 225.513ZM200.259 226.593C202.047 226.593 203.211 225.465 203.211 224.049C203.211 222.861 202.467 222.201 201.603 221.961C202.335 221.721 202.935 221.001 202.935 220.065C202.935 218.697 201.963 217.713 200.283 217.713C198.627 217.713 197.511 218.805 197.283 220.245L198.315 220.449C198.507 219.369 199.227 218.685 200.259 218.685C201.243 218.685 201.855 219.237 201.855 220.125C201.855 220.989 201.183 221.493 200.187 221.493H199.251V222.465H200.175C201.267 222.465 202.095 222.969 202.095 223.989C202.095 225.009 201.339 225.633 200.247 225.633C199.167 225.633 198.315 224.937 198.147 223.737L197.031 223.977C197.307 225.693 198.615 226.593 200.259 226.593ZM209.058 226.461V224.217H210.738V223.257H209.07V217.845H207.606L203.826 223.317V224.217H207.99V226.461H209.058ZM205.002 223.257L207.978 218.949V223.257H205.002ZM211.442 226.461H212.81V225.045H211.442V226.461ZM213.571 222.153C213.571 224.781 214.807 226.593 216.859 226.593C218.899 226.593 220.135 224.781 220.135 222.153C220.135 219.525 218.899 217.713 216.859 217.713C214.807 217.713 213.571 219.525 213.571 222.153ZM214.723 222.153C214.723 220.137 215.455 218.721 216.859 218.721C218.251 218.721 218.995 220.137 218.995 222.153C218.995 224.169 218.251 225.585 216.859 225.585C215.455 225.585 214.723 224.169 214.723 222.153ZM221.047 222.153C221.047 224.781 222.283 226.593 224.335 226.593C226.375 226.593 227.611 224.781 227.611 222.153C227.611 219.525 226.375 217.713 224.335 217.713C222.283 217.713 221.047 219.525 221.047 222.153ZM222.199 222.153C222.199 220.137 222.931 218.721 224.335 218.721C225.727 218.721 226.471 220.137 226.471 222.153C226.471 224.169 225.727 225.585 224.335 225.585C222.931 225.585 222.199 224.169 222.199 222.153Z" fill="#30313D"/>
<path d="M10.528 260.829C10.528 259.376 11.7063 258.197 13.1599 258.197H230.84C232.294 258.197 233.472 259.376 233.472 260.829V298.565C233.472 300.019 232.294 301.197 230.84 301.197H13.1599C11.7063 301.197 10.528 300.019 10.528 298.565V260.829Z" fill="#F6F8FA"/>
<path d="M17.8919 264.845H16.7399V273.461H17.8919V264.845ZM26.5907 264.845H25.4747V271.505L20.9987 264.845H19.7867V273.461H20.8907V266.525L25.5947 273.461H26.5907V264.845ZM32.2141 273.461L35.4661 264.845H34.2901L31.6261 272.021L28.9621 264.845H27.7261L31.0021 273.461H32.2141ZM35.3179 270.449H38.5939V269.477H35.3179V270.449ZM39.7322 269.153C39.7322 271.781 40.9682 273.593 43.0202 273.593C45.0602 273.593 46.2962 271.781 46.2962 269.153C46.2962 266.525 45.0602 264.713 43.0202 264.713C40.9682 264.713 39.7322 266.525 39.7322 269.153ZM40.8842 269.153C40.8842 267.137 41.6162 265.721 43.0202 265.721C44.4122 265.721 45.1562 267.137 45.1562 269.153C45.1562 271.169 44.4122 272.585 43.0202 272.585C41.6162 272.585 40.8842 271.169 40.8842 269.153ZM47.2088 269.153C47.2088 271.781 48.4448 273.593 50.4968 273.593C52.5368 273.593 53.7728 271.781 53.7728 269.153C53.7728 266.525 52.5368 264.713 50.4968 264.713C48.4448 264.713 47.2088 266.525 47.2088 269.153ZM48.3608 269.153C48.3608 267.137 49.0928 265.721 50.4968 265.721C51.8888 265.721 52.6328 267.137 52.6328 269.153C52.6328 271.169 51.8888 272.585 50.4968 272.585C49.0928 272.585 48.3608 271.169 48.3608 269.153ZM60.8534 266.705C60.4814 265.517 59.6174 264.713 58.1294 264.713C56.1374 264.713 54.6854 266.501 54.6854 269.237C54.6854 271.625 55.6814 273.593 57.8894 273.593C59.5814 273.593 60.8774 272.309 60.8774 270.629C60.8774 269.009 59.6654 267.761 58.0694 267.761C56.9774 267.761 56.1374 268.361 55.7414 269.117V268.997C55.7414 266.981 56.7614 265.673 58.0934 265.673C59.0894 265.673 59.6654 266.273 59.9054 267.101L60.8534 266.705ZM59.8214 270.689C59.8214 271.805 58.9814 272.645 57.8894 272.645C56.7974 272.645 55.9574 271.805 55.9574 270.689C55.9574 269.573 56.8214 268.709 57.9014 268.709C58.9934 268.709 59.8214 269.573 59.8214 270.689ZM63.2518 269.453C63.5398 269.045 64.0918 268.721 64.8118 268.721C65.9038 268.721 66.6478 269.597 66.6478 270.689C66.6478 271.793 65.8078 272.633 64.7158 272.633C63.6478 272.633 62.9038 271.925 62.7238 270.821L61.6198 271.049C61.9198 272.681 63.0958 273.593 64.7158 273.593C66.4438 273.593 67.7278 272.297 67.7278 270.665C67.7278 269.033 66.6238 267.785 64.9438 267.785C64.1878 267.785 63.5998 268.085 63.2278 268.457L63.4558 265.853H67.2598V264.845H62.5678L62.1958 269.273L63.2518 269.453Z" fill="#30313D"/>
<path fill-rule="evenodd" clip-rule="evenodd" d="M72.2463 267.316V271.429H76.3588V270.195C76.3588 269.968 76.5429 269.784 76.77 269.784C76.9972 269.784 77.1813 269.968 77.1813 270.195V271.84C77.1813 272.067 76.9972 272.251 76.77 272.251H71.8351C71.6079 272.251 71.4238 272.067 71.4238 271.84V266.905C71.4238 266.678 71.6079 266.494 71.8351 266.494H73.4801C73.7072 266.494 73.8913 266.678 73.8913 266.905C73.8913 267.132 73.7072 267.316 73.4801 267.316H72.2463ZM74.5933 269.663C74.4327 269.824 74.1724 269.824 74.0118 269.663C73.8512 269.503 73.8512 269.242 74.0118 269.082L76.6029 266.492H75.1317C74.9051 266.492 74.7214 266.308 74.7214 266.081C74.7214 265.855 74.9051 265.671 75.1317 265.671H77.5935C77.6985 265.671 77.8035 265.711 77.8836 265.791C77.9637 265.871 78.0038 265.976 78.0038 266.081V268.543C78.0038 268.77 77.8201 268.954 77.5935 268.954C77.3669 268.954 77.1832 268.77 77.1832 268.543V267.072L74.5933 269.663Z" fill="#6A7383"/>
<g clip-path="url(#clip3_2379_884778)">
<path d="M15.7919 283.093C15.7919 281.639 16.9702 280.461 18.4238 280.461H72.0558C73.5094 280.461 74.6878 281.639 74.6878 283.093V289.673C74.6878 291.127 73.5094 292.305 72.0558 292.305H18.4238C16.9702 292.305 15.7919 291.127 15.7919 289.673V283.093Z" fill="#F6E6B9"/>
<path d="M20.2839 289.383H22.2039C23.9879 289.383 25.0919 288.263 25.0919 286.511C25.0919 284.759 23.9879 283.639 22.2039 283.639H20.2839V289.383ZM21.2839 288.503V284.519H22.1959C23.3879 284.519 24.0839 285.295 24.0839 286.511C24.0839 287.719 23.3879 288.503 22.2039 288.503H21.2839ZM29.3492 285.183H28.3892V287.679C28.3892 288.279 27.9572 288.599 27.5252 288.599C27.0052 288.599 26.7812 288.271 26.7812 287.759V285.183H25.8212V287.967C25.8212 288.871 26.3652 289.471 27.2452 289.471C27.7892 289.471 28.1492 289.215 28.3892 288.935V289.383H29.3492V285.183ZM32.1371 289.471C32.9771 289.471 33.6411 289.031 33.9371 288.295L33.1131 287.983C32.9851 288.415 32.6091 288.655 32.1371 288.655C31.5211 288.655 31.0891 288.215 31.0171 287.495H33.9611V287.175C33.9611 286.023 33.3131 285.103 32.0971 285.103C30.9291 285.103 30.0971 286.055 30.0971 287.287C30.0971 288.583 30.9371 289.471 32.1371 289.471ZM32.0891 285.911C32.6971 285.911 32.9851 286.311 32.9931 286.775H31.0651C31.2091 286.207 31.5931 285.911 32.0891 285.911ZM36.4178 288.327C36.4178 289.183 36.8498 289.431 37.6498 289.431C37.8978 289.431 38.1378 289.407 38.3138 289.375V288.567C38.1698 288.583 38.0818 288.591 37.9218 288.591C37.5778 288.591 37.3618 288.551 37.3618 288.175V285.999H38.2418V285.183H37.3618V283.951H36.4178V285.183H35.8338V285.999H36.4178V288.327ZM42.7779 287.287C42.7779 285.983 41.9379 285.103 40.7539 285.103C39.5699 285.103 38.7299 285.983 38.7299 287.287C38.7299 288.591 39.5699 289.471 40.7539 289.471C41.9379 289.471 42.7779 288.591 42.7779 287.287ZM39.6979 287.287C39.6979 286.431 40.1059 285.911 40.7539 285.911C41.4019 285.911 41.8099 286.431 41.8099 287.287C41.8099 288.143 41.4019 288.663 40.7539 288.663C40.1059 288.663 39.6979 288.143 39.6979 287.287ZM44.4851 286.919C44.4851 286.319 44.9091 285.999 45.3171 285.999C45.8291 285.999 46.0211 286.375 46.0211 286.895V289.383H46.9811V286.919C46.9811 286.319 47.4051 285.999 47.8131 285.999C48.3251 285.999 48.5171 286.375 48.5171 286.895V289.383H49.4771V286.615C49.4771 285.711 48.9171 285.103 48.0531 285.103C47.4051 285.103 47.0051 285.415 46.7491 285.687C46.5171 285.327 46.1411 285.103 45.6371 285.103C45.0771 285.103 44.7171 285.351 44.4851 285.631V285.183H43.5251V289.383H44.4851V286.919ZM54.2388 287.287C54.2388 285.983 53.3988 285.103 52.2148 285.103C51.0308 285.103 50.1908 285.983 50.1908 287.287C50.1908 288.591 51.0308 289.471 52.2148 289.471C53.3988 289.471 54.2388 288.591 54.2388 287.287ZM51.1588 287.287C51.1588 286.431 51.5668 285.911 52.2148 285.911C52.8628 285.911 53.2708 286.431 53.2708 287.287C53.2708 288.143 52.8628 288.663 52.2148 288.663C51.5668 288.663 51.1588 288.143 51.1588 287.287ZM57.3701 285.175C57.2981 285.167 57.2101 285.159 57.0981 285.159C56.5621 285.159 56.1301 285.415 55.9461 285.807V285.183H54.9861V289.383H55.9461V287.175C55.9461 286.503 56.4101 286.111 57.0181 286.111C57.1541 286.111 57.2501 286.119 57.3701 286.135V285.175ZM60.4169 285.175C60.3449 285.167 60.2569 285.159 60.1449 285.159C59.6089 285.159 59.1769 285.415 58.9929 285.807V285.183H58.0329V289.383H58.9929V287.175C58.9929 286.503 59.4569 286.111 60.0649 286.111C60.2009 286.111 60.2969 286.119 60.4169 286.135V285.175ZM64.6607 287.287C64.6607 285.983 63.8207 285.103 62.6367 285.103C61.4527 285.103 60.6127 285.983 60.6127 287.287C60.6127 288.591 61.4527 289.471 62.6367 289.471C63.8207 289.471 64.6607 288.591 64.6607 287.287ZM61.5807 287.287C61.5807 286.431 61.9887 285.911 62.6367 285.911C63.2847 285.911 63.6927 286.431 63.6927 287.287C63.6927 288.143 63.2847 288.663 62.6367 288.663C61.9887 288.663 61.5807 288.143 61.5807 287.287ZM67.3298 285.183L66.5858 287.967L65.8258 285.183H64.8418L66.1058 289.383H66.9378L67.7058 286.631L68.4738 289.383H69.3058L70.5698 285.183H69.6178L68.8738 287.967L68.1218 285.183H67.3298Z" fill="#983705"/>
</g>
<path d="M186.28 271.697C186.82 272.729 187.972 273.413 189.34 273.533V274.685H190.216V273.521C191.728 273.353 192.892 272.405 192.892 270.965C192.892 269.273 191.536 268.877 190.216 268.601V265.745C191.044 265.889 191.632 266.393 192.004 267.125L192.832 266.429C192.388 265.541 191.452 264.929 190.216 264.785V263.633H189.34V264.773C187.852 264.893 186.688 265.829 186.688 267.209C186.688 268.817 188.032 269.189 189.34 269.465V272.549C188.368 272.441 187.624 271.913 187.144 270.977L186.28 271.697ZM187.744 267.137C187.744 266.345 188.416 265.817 189.34 265.721V268.409C188.452 268.217 187.744 267.929 187.744 267.137ZM191.836 271.037C191.836 271.937 191.14 272.429 190.216 272.549V269.657C191.116 269.873 191.836 270.185 191.836 271.037ZM193.578 271.601C193.95 272.789 194.814 273.593 196.302 273.593C198.294 273.593 199.746 271.805 199.746 269.069C199.746 266.681 198.75 264.713 196.542 264.713C194.85 264.713 193.554 265.997 193.554 267.677C193.554 269.297 194.766 270.545 196.362 270.545C197.454 270.545 198.294 269.945 198.69 269.189V269.309C198.69 271.325 197.67 272.633 196.338 272.633C195.342 272.633 194.766 272.033 194.526 271.205L193.578 271.601ZM194.61 267.617C194.61 266.501 195.45 265.661 196.542 265.661C197.634 265.661 198.474 266.501 198.474 267.617C198.474 268.733 197.61 269.597 196.53 269.597C195.438 269.597 194.61 268.733 194.61 267.617ZM202.77 264.797C202.686 265.793 202.35 266.141 201.33 266.213L200.406 266.273V267.125H202.482V273.461H203.634V264.797H202.77ZM210.054 273.461V271.217H211.734V270.257H210.066V264.845H208.602L204.822 270.317V271.217H208.986V273.461H210.054ZM205.998 270.257L208.974 265.949V270.257H205.998ZM212.438 273.461H213.806V272.045H212.438V273.461ZM216.301 269.453C216.589 269.045 217.141 268.721 217.861 268.721C218.953 268.721 219.697 269.597 219.697 270.689C219.697 271.793 218.857 272.633 217.765 272.633C216.697 272.633 215.953 271.925 215.773 270.821L214.669 271.049C214.969 272.681 216.145 273.593 217.765 273.593C219.493 273.593 220.777 272.297 220.777 270.665C220.777 269.033 219.673 267.785 217.993 267.785C217.237 267.785 216.649 268.085 216.277 268.457L216.505 265.853H220.309V264.845H215.617L215.245 269.273L216.301 269.453ZM223.11 269.453C223.398 269.045 223.95 268.721 224.67 268.721C225.762 268.721 226.506 269.597 226.506 270.689C226.506 271.793 225.666 272.633 224.574 272.633C223.506 272.633 222.762 271.925 222.582 270.821L221.478 271.049C221.778 272.681 222.954 273.593 224.574 273.593C226.302 273.593 227.586 272.297 227.586 270.665C227.586 269.033 226.482 267.785 224.802 267.785C224.046 267.785 223.458 268.085 223.086 268.457L223.314 265.853H227.118V264.845H222.426L222.054 269.273L223.11 269.453Z" fill="#30313D"/>
<g clip-path="url(#clip4_2379_884778)">
<path d="M12.5019 331.383H17.7659C18.1293 331.383 18.4239 331.678 18.4239 332.041C18.4239 332.404 18.1293 332.699 17.7659 332.699H12.5019C12.1385 332.699 11.8439 332.404 11.8439 332.041C11.8439 331.678 12.1385 331.383 12.5019 331.383Z" fill="#30313D"/>
<path d="M18.4239 341.253C19.8775 341.253 21.0559 340.075 21.0559 338.621C21.0559 337.167 19.8775 335.989 18.4239 335.989C16.9703 335.989 15.7919 337.167 15.7919 338.621C15.7919 340.075 16.9703 341.253 18.4239 341.253Z" fill="#30313D"/>
<path d="M16.2408 335.331C16.4954 335.162 16.7708 335.021 17.0623 334.914C17.0917 334.839 17.1079 334.758 17.1079 334.673C17.1079 334.31 16.8133 334.015 16.4499 334.015H11.1859C10.8225 334.015 10.528 334.31 10.528 334.673C10.528 335.036 10.8225 335.331 11.1859 335.331H16.2408Z" fill="#30313D"/>
<path d="M15.0041 336.647C14.7729 337.047 14.6098 337.491 14.5305 337.963H11.8439C11.4805 337.963 11.1859 337.668 11.1859 337.305C11.1859 336.942 11.4805 336.647 11.8439 336.647H15.0041Z" fill="#30313D"/>
<path d="M15.0041 340.595C14.7729 340.195 14.6098 339.751 14.5305 339.279H11.1859C10.8225 339.279 10.528 339.574 10.528 339.937C10.528 340.3 10.8225 340.595 11.1859 340.595H15.0041Z" fill="#30313D"/>
<path d="M32.0678 339.989L34.3238 333.329V339.989H35.7518V331.373H33.6878L31.4678 337.973L29.2478 331.373H27.1358V339.989H28.5638V333.329L30.8198 339.989H32.0678ZM42.994 336.845C42.994 334.889 41.734 333.569 39.958 333.569C38.182 333.569 36.922 334.889 36.922 336.845C36.922 338.801 38.182 340.121 39.958 340.121C41.734 340.121 42.994 338.801 42.994 336.845ZM38.374 336.845C38.374 335.561 38.986 334.781 39.958 334.781C40.93 334.781 41.542 335.561 41.542 336.845C41.542 338.129 40.93 338.909 39.958 338.909C38.986 338.909 38.374 338.129 38.374 336.845ZM44.1149 339.989H45.5549V336.293C45.5549 335.393 46.2149 334.913 46.8629 334.913C47.6549 334.913 47.9669 335.477 47.9669 336.257V339.989H49.4069V335.837C49.4069 334.481 48.6149 333.569 47.2949 333.569C46.4789 333.569 45.9149 333.941 45.5549 334.361V333.689H44.1149V339.989ZM53.5406 340.121C54.8006 340.121 55.7966 339.461 56.2406 338.357L55.0046 337.889C54.8126 338.537 54.2486 338.897 53.5406 338.897C52.6166 338.897 51.9686 338.237 51.8606 337.157H56.2766V336.677C56.2766 334.949 55.3046 333.569 53.4806 333.569C51.7286 333.569 50.4806 334.997 50.4806 336.845C50.4806 338.789 51.7406 340.121 53.5406 340.121ZM53.4686 334.781C54.3806 334.781 54.8126 335.381 54.8246 336.077H51.9326C52.1486 335.225 52.7246 334.781 53.4686 334.781ZM59.9759 340.577L62.5679 333.689H61.0799L59.5679 338.105L58.0199 333.689H56.5079L58.7999 339.761L58.5599 340.349C58.3559 340.853 58.1279 340.985 57.6479 340.985C57.4679 340.985 57.3599 340.973 57.1679 340.949V342.161C57.3719 342.185 57.4559 342.197 57.7559 342.197C59.0639 342.197 59.6159 341.537 59.9759 340.577ZM65.794 332.849H67.282V331.373H65.794V332.849ZM67.258 333.689H65.818V339.989H67.258V333.689ZM68.7711 339.989H70.2111V336.293C70.2111 335.393 70.8711 334.913 71.5191 334.913C72.3111 334.913 72.6231 335.477 72.6231 336.257V339.989H74.0631V335.837C74.0631 334.481 73.2711 333.569 71.9511 333.569C71.1351 333.569 70.5711 333.941 70.2111 334.361V333.689H68.7711V339.989Z" fill="#3F4B66"/>
<rect width="223.398" height="0.657994" transform="translate(10.528 364.045)" fill="white"/>
<rect width="223.398" height="0.657994" transform="translate(10.528 364.045)" fill="#DDDDDD"/>
<rect width="223.398" height="0.657994" transform="translate(10.528 418.658)" fill="white"/>
<rect width="223.398" height="0.657994" transform="translate(10.528 418.658)" fill="#A8A8A8"/>
<rect x="15.7919" y="364.045" width="5.26395" height="54.6135" fill="#635BFF"/>
<rect x="35.1438" y="380.429" width="5.26395" height="38.2294" fill="#635BFF"/>
<rect x="54.4956" y="380.429" width="5.26395" height="38.2294" fill="#635BFF"/>
<rect x="73.8474" y="374.967" width="5.26395" height="43.6908" fill="#635BFF"/>
<rect x="93.1992" y="413.197" width="5.26395" height="5.46135" fill="#635BFF"/>
<rect x="112.551" y="407.736" width="5.26395" height="10.9227" fill="#635BFF"/>
<rect x="131.903" y="407.736" width="5.26395" height="10.9227" fill="#635BFF"/>
<rect x="151.255" y="396.813" width="5.26395" height="21.8454" fill="#635BFF"/>
<rect x="170.607" y="385.89" width="5.26395" height="32.7681" fill="#635BFF"/>
<rect x="189.958" y="374.967" width="5.26395" height="43.6908" fill="#635BFF"/>
<rect x="209.31" y="374.967" width="5.26395" height="43.6908" fill="#635BFF"/>
<rect x="228.662" y="385.89" width="5.26395" height="32.7681" fill="#635BFF"/>
<path d="M19.5119 427.316L21.2719 422.588V427.316H21.9839V421.572H20.9679L19.2159 426.292L17.4719 421.572H16.4239V427.316H17.1439V422.588L18.8959 427.316H19.5119ZM26.236 426.404V424.244C26.236 423.476 25.66 423.052 24.732 423.052C23.836 423.052 23.14 423.476 23.076 424.364H23.78C23.836 423.916 24.14 423.684 24.692 423.684C25.204 423.684 25.54 423.884 25.54 424.348V424.604L24.5 424.812C23.564 424.996 22.908 425.348 22.908 426.18C22.908 426.932 23.532 427.388 24.292 427.388C24.836 427.388 25.3 427.188 25.556 426.884C25.564 427.052 25.572 427.196 25.588 427.316H26.3C26.26 427.052 26.236 426.716 26.236 426.404ZM25.54 425.892C25.54 426.428 25.004 426.804 24.388 426.804C23.932 426.804 23.628 426.556 23.628 426.148C23.628 425.644 24.052 425.468 24.692 425.34L25.54 425.164V425.892ZM29.5677 423.116C29.4957 423.108 29.3917 423.1 29.2797 423.1C28.7117 423.1 28.3037 423.42 28.1197 423.844V423.132H27.3997V427.316H28.1197V425.028C28.1197 424.292 28.6077 423.812 29.2157 423.812C29.3517 423.812 29.4477 423.82 29.5677 423.844V423.116ZM31.7201 426.684V427.316H35.6721V426.644H32.7681L34.0641 425.588C34.8881 424.924 35.5601 424.252 35.5601 423.276C35.5601 422.22 34.8241 421.484 33.6641 421.484C32.6081 421.484 31.7681 422.26 31.7681 423.284C31.7681 423.508 31.8081 423.7 31.8961 423.948H32.6161C32.5361 423.748 32.4881 423.532 32.4881 423.324C32.4881 422.668 32.9601 422.14 33.6481 422.14C34.3521 422.14 34.8081 422.62 34.8081 423.324C34.8081 424.076 34.2001 424.628 33.4161 425.276L31.7201 426.684ZM36.174 424.444C36.174 426.196 36.998 427.404 38.366 427.404C39.726 427.404 40.55 426.196 40.55 424.444C40.55 422.692 39.726 421.484 38.366 421.484C36.998 421.484 36.174 422.692 36.174 424.444ZM36.942 424.444C36.942 423.1 37.43 422.156 38.366 422.156C39.294 422.156 39.79 423.1 39.79 424.444C39.79 425.788 39.294 426.732 38.366 426.732C37.43 426.732 36.942 425.788 36.942 424.444ZM41.0795 426.684V427.316H45.0315V426.644H42.1275L43.4235 425.588C44.2475 424.924 44.9195 424.252 44.9195 423.276C44.9195 422.22 44.1835 421.484 43.0235 421.484C41.9675 421.484 41.1275 422.26 41.1275 423.284C41.1275 423.508 41.1675 423.7 41.2555 423.948H41.9755C41.8955 423.748 41.8475 423.532 41.8475 423.324C41.8475 422.668 42.3195 422.14 43.0075 422.14C43.7115 422.14 44.1675 422.62 44.1675 423.324C44.1675 424.076 43.5595 424.628 42.7755 425.276L41.0795 426.684ZM47.0362 421.54C46.9802 422.204 46.7562 422.436 46.0762 422.484L45.4602 422.524V423.092H46.8442V427.316H47.6122V421.54H47.0362Z" fill="#30313D"/>
<path d="M203.693 427.316L205.453 422.588V427.316H206.165V421.572H205.149L203.397 426.292L201.653 421.572H200.605V427.316H201.325V422.588L203.077 427.316H203.693ZM210.417 426.404V424.244C210.417 423.476 209.841 423.052 208.913 423.052C208.017 423.052 207.321 423.476 207.257 424.364H207.961C208.017 423.916 208.321 423.684 208.873 423.684C209.385 423.684 209.721 423.884 209.721 424.348V424.604L208.681 424.812C207.745 424.996 207.089 425.348 207.089 426.18C207.089 426.932 207.713 427.388 208.473 427.388C209.017 427.388 209.481 427.188 209.737 426.884C209.745 427.052 209.753 427.196 209.769 427.316H210.481C210.441 427.052 210.417 426.716 210.417 426.404ZM209.721 425.892C209.721 426.428 209.185 426.804 208.569 426.804C208.113 426.804 207.809 426.556 207.809 426.148C207.809 425.644 208.233 425.468 208.873 425.34L209.721 425.164V425.892ZM213.749 423.116C213.677 423.108 213.573 423.1 213.461 423.1C212.893 423.1 212.485 423.42 212.301 423.844V423.132H211.581V427.316H212.301V425.028C212.301 424.292 212.789 423.812 213.397 423.812C213.533 423.812 213.629 423.82 213.749 423.844V423.116ZM215.901 426.684V427.316H219.853V426.644H216.949L218.245 425.588C219.069 424.924 219.741 424.252 219.741 423.276C219.741 422.22 219.005 421.484 217.845 421.484C216.789 421.484 215.949 422.26 215.949 423.284C215.949 423.508 215.989 423.7 216.077 423.948H216.797C216.717 423.748 216.669 423.532 216.669 423.324C216.669 422.668 217.141 422.14 217.829 422.14C218.533 422.14 218.989 422.62 218.989 423.324C218.989 424.076 218.381 424.628 217.597 425.276L215.901 426.684ZM220.355 424.444C220.355 426.196 221.179 427.404 222.547 427.404C223.907 427.404 224.731 426.196 224.731 424.444C224.731 422.692 223.907 421.484 222.547 421.484C221.179 421.484 220.355 422.692 220.355 424.444ZM221.123 424.444C221.123 423.1 221.611 422.156 222.547 422.156C223.475 422.156 223.971 423.1 223.971 424.444C223.971 425.788 223.475 426.732 222.547 426.732C221.611 426.732 221.123 425.788 221.123 424.444ZM225.261 426.684V427.316H229.213V426.644H226.309L227.605 425.588C228.429 424.924 229.101 424.252 229.101 423.276C229.101 422.22 228.365 421.484 227.205 421.484C226.149 421.484 225.309 422.26 225.309 423.284C225.309 423.508 225.349 423.7 225.437 423.948H226.157C226.077 423.748 226.029 423.532 226.029 423.324C226.029 422.668 226.501 422.14 227.189 422.14C227.893 422.14 228.349 422.62 228.349 423.324C228.349 424.076 227.741 424.628 226.957 425.276L225.261 426.684ZM229.729 426.684V427.316H233.681V426.644H230.777L232.073 425.588C232.897 424.924 233.569 424.252 233.569 423.276C233.569 422.22 232.833 421.484 231.673 421.484C230.617 421.484 229.777 422.26 229.777 423.284C229.777 423.508 229.817 423.7 229.905 423.948H230.625C230.545 423.748 230.497 423.532 230.497 423.324C230.497 422.668 230.969 422.14 231.657 422.14C232.361 422.14 232.817 422.62 232.817 423.324C232.817 424.076 232.209 424.628 231.425 425.276L229.729 426.684Z" fill="#30313D"/>
</g>
</g>
<defs>
<clipPath id="clip0_2379_884778">
<rect width="244" height="301.286" fill="white" transform="translate(0 141.718)"/>
</clipPath>
<clipPath id="clip1_2379_884778">
<rect width="222.944" height="23.6878" fill="white" transform="translate(10.528 179.509)"/>
</clipPath>
<clipPath id="clip2_2379_884778">
<path d="M15.7919 236.093C15.7919 234.639 16.9702 233.461 18.4238 233.461H37.0558C38.5094 233.461 39.6878 234.639 39.6878 236.093V242.673C39.6878 244.127 38.5094 245.305 37.0558 245.305H18.4238C16.9702 245.305 15.7919 244.127 15.7919 242.673V236.093Z" fill="white"/>
</clipPath>
<clipPath id="clip3_2379_884778">
<path d="M15.7919 283.093C15.7919 281.639 16.9702 280.461 18.4238 280.461H72.0558C73.5094 280.461 74.6878 281.639 74.6878 283.093V289.673C74.6878 291.127 73.5094 292.305 72.0558 292.305H18.4238C16.9702 292.305 15.7919 291.127 15.7919 289.673V283.093Z" fill="white"/>
</clipPath>
<clipPath id="clip4_2379_884778">
<rect width="222.944" height="124.543" fill="white" transform="translate(10.528 318.461)"/>
</clipPath>
</defs>
</svg>
